<?xml version="1.0" standalone="no"?>
<!DOCTYPE svg PUBLIC "-//W3C//DTD SVG 20010904//EN"
 "http://www.w3.org/TR/2001/REC-SVG-20010904/DTD/svg10.dtd">
<svg version="1.0" xmlns="http://www.w3.org/2000/svg"
 width="512.000000pt" height="512.000000pt" viewBox="0 0 512.000000 512.000000"
 preserveAspectRatio="xMidYMid meet">
<metadata>
Created by potrace 1.11, written by Peter Selinger 2001-2013
</metadata>
<g transform="translate(0.000000,512.000000) scale(0.100000,-0.100000)"
fill="#000000" stroke="none">
<path d="M2490 4061 c-37 -12 -93 -41 -205 -105 -348 -203 -556 -322 -780
-449 -104 -59 -199 -121 -226 -147 -81 -78 -79 -56 -79 -811 0 -717 0 -711 57
-787 30 -40 31 -40 373 -237 151 -87 329 -190 395 -228 478 -275 475 -274 568
-256 55 10 108 38 502 265 619 356 708 409 743 445 64 65 63 52 60 820 -3 772
2 720 -73 790 -34 33 -76 59 -490 296 -110 64 -306 176 -434 251 -129 75 -251
141 -270 148 -40 14 -103 16 -141 5z m308 -640 c142 -41 284 -126 391 -232 70
-70 145 -174 136 -188 -3 -5 -24 -20 -48 -33 -23 -14 -106 -61 -183 -106 -78
-45 -146 -82 -151 -82 -6 0 -23 17 -39 38 -37 48 -58 67 -123 109 -158 103
-384 83 -525 -47 -307 -283 -92 -794 324 -767 132 8 251 72 325 174 17 23 35
42 40 42 16 1 378 -213 382 -226 7 -19 -120 -175 -189 -233 -445 -373 -1102
-249 -1382 261 -134 245 -138 568 -9 824 126 250 341 416 624 480 94 22 330
14 427 -14z m627 -608 c-4 -21 -9 -46 -12 -55 -4 -16 3 -18 56 -18 l59 0 9 53
8 52 41 3 42 3 -9 -43 c-12 -65 -12 -68 21 -68 28 0 30 -2 30 -40 0 -39 -1
-40 -34 -40 -42 0 -44 -2 -52 -74 l-7 -58 34 4 c33 3 34 2 37 -34 l3 -38 -41
0 c-45 0 -53 -11 -65 -82 -6 -37 -7 -38 -46 -38 l-40 0 7 48 c3 26 7 52 8 57
0 6 -25 11 -56 13 l-57 3 -7 -61 -7 -60 -42 0 -42 0 8 43 c12 60 11 78 -3 76
-42 -5 -49 1 -46 39 3 33 6 37 28 34 39 -4 49 9 56 71 l7 57 -37 0 c-37 0 -37
0 -34 38 3 36 4 37 45 40 45 3 46 5 58 75 6 36 7 37 46 37 l40 0 -6 -37z"/>
<path d="M3396 2645 c-3 -8 -8 -37 -12 -65 l-7 -50 56 0 c31 0 58 3 60 8 3 4
8 33 12 65 l7 57 -55 0 c-39 0 -56 -4 -61 -15z"/>
</g>
</svg>
