<svg version="1.0" xmlns="http://www.w3.org/2000/svg" width="682.667" height="682.667" viewBox="0 0 512 512"><path d="M249 105.9c-3.7 1.2-9.3 4.1-20.5 10.5-34.8 20.3-55.6 32.2-78 44.9-10.4 5.9-19.9 12.1-22.6 14.7-8.1 7.8-7.9 5.6-7.9 81.1 0 71.7 0 71.1 5.7 78.7 3 4 3.1 4 37.3 23.7 15.1 8.7 32.9 19 39.5 22.8 47.8 27.5 47.5 27.4 56.8 25.6 5.5-1 10.8-3.8 50.2-26.5 61.9-35.6 70.8-40.9 74.3-44.5 6.4-6.5 6.3-5.2 6-82-.3-77.2.2-72-7.3-79-3.4-3.3-7.6-5.9-49-29.6-11-6.4-30.6-17.6-43.4-25.1-12.9-7.5-25.1-14.1-27-14.8-4-1.4-10.3-1.6-14.1-.5zm30.8 64c14.2 4.1 28.4 12.6 39.1 23.2 7 7 14.5 17.4 13.6 18.8-.3.5-2.4 2-4.8 3.3-2.3 1.4-10.6 6.1-18.3 10.6-7.8 4.5-14.6 8.2-15.1 8.2-.6 0-2.3-1.7-3.9-3.8-3.7-4.8-5.8-6.7-12.3-10.9-15.8-10.3-38.4-8.3-52.5 4.7-30.7 28.3-9.2 79.4 32.4 76.7 13.2-.8 25.1-7.2 32.5-17.4 1.7-2.3 3.5-4.2 4-4.2 1.6-.1 37.8 21.3 38.2 22.6.7 1.9-12 17.5-18.9 23.3-44.5 37.3-110.2 24.9-138.2-26.1-13.4-24.5-13.8-56.8-.9-82.4 12.6-25 34.1-41.6 62.4-48 9.4-2.2 33-1.4 42.7 1.4zm62.7 60.8c-.4 2.1-.9 4.6-1.2 5.5-.4 1.6.3 1.8 5.6 1.8h5.9l.9-5.3.8-5.2 4.1-.3 4.2-.3-.9 4.3c-1.2 6.5-1.2 6.8 2.1 6.8 2.8 0 3 .2 3 4 0 3.9-.1 4-3.4 4-4.2 0-4.4.2-5.2 7.4l-.7 5.8 3.4-.4c3.3-.3 3.4-.2 3.7 3.4l.3 3.8H361c-4.5 0-5.3 1.1-6.5 8.2-.6 3.7-.7 3.8-4.6 3.8h-4l.7-4.8c.3-2.6.7-5.2.8-5.7 0-.6-2.5-1.1-5.6-1.3l-5.7-.3-.7 6.1-.7 6h-8.4l.8-4.3c1.2-6 1.1-7.8-.3-7.6-4.2.5-4.9-.1-4.6-3.9.3-3.3.6-3.7 2.8-3.4 3.9.4 4.9-.9 5.6-7.1l.7-5.7h-3.7c-3.7 0-3.7 0-3.4-3.8.3-3.6.4-3.7 4.5-4 4.5-.3 4.6-.5 5.8-7.5.6-3.6.7-3.7 4.6-3.7h4l-.6 3.7z"/><path d="M339.6 247.5c-.3.8-.8 3.7-1.2 6.5l-.7 5h5.6c3.1 0 5.8-.3 6-.8.3-.4.8-3.3 1.2-6.5l.7-5.7h-5.5c-3.9 0-5.6.4-6.1 1.5z"/></svg>